HIERARCHY
ROOT pelvis
{
  OFFSET 0 100 0
  CHANNELS 6 Xposition Yposition Zposition Zrotation Xrotation Yrotation
  JOINT pelvis_right_femur
  {
    OFFSET -10.78128 -3.44521 -0.5502486
    CHANNELS 3 Zrotation Xrotation Yrotation
    JOINT right_femur_tibia
    {
      OFFSET -0.8047443 -44.0398 -0.1307829
      CHANNELS 3 Zrotation Xrotation Yrotation
      JOINT right_tibia_foot
      {
        OFFSET 3.006224 -47.83518 -5
        CHANNELS 3 Zrotation Xrotation Yrotation
        End Site
        {
          OFFSET 0 -5 15
        }
      }
    }
  }
  JOINT pelvis_left_femur
  {
    OFFSET 10.78128 -3.44521 -0.5502486
    CHANNELS 3 Zrotation Xrotation Yrotation
    JOINT left_femur_tibia
    {
      OFFSET 0.8047443 -44.0398 -0.1307829
      CHANNELS 3 Zrotation Xrotation Yrotation
      JOINT left_tibia_foot
      {
        OFFSET -4.370144 -48.10324 -4.275266
        CHANNELS 3 Zrotation Xrotation Yrotation
        End Site
        {
          OFFSET 0 -5 15
        }
      }
    }
  }
  JOINT pelvis_spine1
  {
    OFFSET 0 6.468898 -3.129235
    CHANNELS 3 Zrotation Xrotation Yrotation
    JOINT spine1
    {
      OFFSET 0 23.15396 4.99043
      CHANNELS 3 Zrotation Xrotation Yrotation
      JOINT spine2
      {
        OFFSET 0 20.79997 -5.064912
        CHANNELS 3 Zrotation Xrotation Yrotation
        JOINT neck
        {
          OFFSET 0 14.38658 9.616178
          CHANNELS 3 Zrotation Xrotation Yrotation
          End Site
          {
            OFFSET 0 20 0
          }
        }
      }
      JOINT right_manubrium
      {
        OFFSET -5.722621 16.35077 3.967754
        CHANNELS 3 Zrotation Xrotation Yrotation
        JOINT right_clavicle
        {
          OFFSET -13.16364 1.694482 -4.693211
          CHANNELS 3 Zrotation Xrotation Yrotation
          JOINT right_humerus
          {
            OFFSET -28.5034 -0.3100689 -2.792744
            CHANNELS 3 Zrotation Xrotation Yrotation
            JOINT right_radius
            {
              OFFSET -25.15693 0.02248979 -1.271978
              CHANNELS 3 Zrotation Xrotation Yrotation
              End Site
              {
                OFFSET -15 0 0
              }
            }
          }
        }
      }
      JOINT left_manubrium
      {
        OFFSET 5.722621 16.35077 3.967754
        CHANNELS 3 Zrotation Xrotation Yrotation
        JOINT left_clavicle
        {
          OFFSET 13.16364 1.694482 -4.693211
          CHANNELS 3 Zrotation Xrotation Yrotation
          JOINT left_humerus
          {
            OFFSET 29.39168 -1.063119 -2.237045
            CHANNELS 3 Zrotation Xrotation Yrotation
            JOINT left_radius
            {
              OFFSET 24.59957 -0.9528479 0.9047498
              CHANNELS 3 Zrotation Xrotation Yrotation
              End Site
              {
                OFFSET 15 -0 -0
              }
            }
          }
        }
      }
    }
  }
}
MOTION
Frames: 9
Frame Time: 0.0416666666667
-1379.969 100.7479 195.9755 -0.3392054 7.136732 -176.2821 4.94565 -19.23219 -5.619239 -0 12.16111 -0 -13.40228 6.333279 0.02966649 -4.486477 12.29428 -6.252159 -0 38.67351 -0 2.953987 -12.56148 15.41705 -0.05445084 -2.70281 2.795494 0.7630024 13.56569 -7.805425 1.090424 23.14117 5.725441 3.629638 -19.03356 5.901958 -2.209795 -18.14635 11.72186 95.78325 20.74382 -23.71545 -0 0 5.408757 -22.42677 10.08151 7.27178 7.173842 -28.18154 -7.709649 -84.86734 10.43607 9.671048 0 0 -26.88505 17.70273 15.52427 -10.51217
-1380.049 101.6513 189.5557 -0.01496958 7.792838 -176.8189 5.858787 -17.05038 -4.592223 -0 12.76821 -0 -13.86864 5.615523 -0.7486411 -3.872009 10.57756 -5.872767 -0 44.28004 -0 2.330157 -10.72611 15.2054 0.4914598 -2.69003 3.082796 0.704507 13.99123 -7.900528 1.15713 23.08059 5.375593 3.388733 -19.06263 5.736378 -2.587454 -18.63576 11.78812 96.22967 20.10685 -23.77431 -0 0 6.148584 -22.20131 10.21171 7.072964 6.468513 -28.02569 -8.044622 -85.50718 11.06373 11.3681 0 0 -25.53049 16.42542 15.75649 -8.667184
-1380.045 102.8163 183.2725 0.237038 8.371242 -177.4699 6.650423 -14.48381 -3.514419 -0 12.90606 -0 -14.33579 4.819943 -1.324772 -3.24172 8.042013 -5.434139 -0 49.30543 -0 2.387515 -8.745279 15.36218 0.915749 -2.697101 3.589917 0.6728544 14.66601 -7.983908 1.186141 22.85931 5.00212 3.183907 -19.28389 5.508945 -2.920866 -19.4836 11.95599 96.53005 19.54042 -23.61991 -0 0 7.254437 -21.91692 10.22154 6.938515 5.821156 -27.98336 -8.385799 -86.26572 10.95694 13.3977 0 0 -23.95184 15.89507 15.49883 -7.738987
-1379.982 104.1376 177.1944 0.4117703 8.87721 -178.2246 7.32683 -11.52011 -2.317743 -0 12.49561 -0 -14.74755 3.923468 -1.762935 -2.57459 4.803554 -4.891271 -0 53.17009 -0 3.093272 -6.739798 15.82355 1.22754 -2.761689 4.330289 0.6819421 15.59916 -8.071762 1.188646 22.45419 4.542789 2.918703 -19.76626 5.227 -3.325928 -20.8117 12.21018 96.79397 18.78998 -23.26859 -0 0 8.807971 -21.51097 10.02888 6.887914 5.177032 -28.05967 -8.7502 -87.10124 10.23742 15.83345 0 0 -22.31076 15.90017 14.77241 -7.440849
-1379.891 105.4813 171.3872 0.5287488 9.316348 -179.0727 7.893835 -8.146698 -0.9182345 -0 11.6138 -0 -15.03442 2.810474 -2.138132 -1.816728 0.9554354 -4.227656 -0 55.30946 -0 4.372293 -4.788073 16.49403 1.445476 -2.896758 5.299036 0.7467713 16.76856 -8.170543 1.176969 21.84027 3.943329 2.506093 -20.533 4.899407 -3.849344 -22.70685 12.53148 97.04804 17.70093 -22.67092 -0 0 10.94963 -20.91016 9.637534 6.956397 4.482269 -28.20074 -9.130731 -87.9956 9.041333 18.78536 0 0 -20.64848 16.21927 13.61706 -7.473726
-1379.817 106.6886 165.8984 0.6252731 9.698726 179.9992 8.349603 -4.392664 0.7466195 -0 10.47159 -0 -15.10157 1.328372 -2.534774 -0.8993461 -3.343247 -3.413402 -0 55.06973 -0 6.100781 -2.986168 17.23234 1.590916 -3.10203 6.460543 0.8838529 18.115 -8.281675 1.160298 20.99251 3.152038 1.859224 -21.53806 4.526044 -4.489869 -25.21465 12.89134 97.26903 16.16977 -21.73312 -0 0 13.84491 -20.04847 9.134834 7.210646 3.69214 -28.30924 -9.496188 -88.91654 7.518269 22.35855 0 0 -18.99423 16.6019 12.10763 -7.507982
-1379.826 107.5954 160.7212 0.7665276 10.03946 179.013 8.696725 -0.4154505 2.662924 -0 9.505682 -0 -14.83451 -0.6494276 -3.042465 0.2430752 -7.73195 -2.400332 -0 51.76443 -0 8.043711 -1.493772 17.82366 1.691094 -3.361234 7.705303 1.105347 19.50475 -8.401553 1.139589 19.90673 2.138593 0.9106715 -22.6086 4.096786 -5.179674 -28.26293 13.24594 97.38508 14.17564 -20.34151 -0 0 17.60586 -18.90426 8.7271 7.752176 2.791553 -28.23781 -9.780463 -89.79181 5.871373 26.57048 0 0 -17.41145 16.74753 10.40939 -7.171684
-1379.99 108.0784 155.7469 1.043779 10.34377 178.003 8.953697 3.428753 4.627503 -0 9.411392 -0 -14.16134 -3.112509 -3.7034 1.618798 -11.57032 -1.188773 -0 45.04424 -0 9.777579 -0.5309059 18.00943 1.774997 -3.627718 8.798493 1.394554 20.67691 -8.503843 1.103716 18.66141 0.9612727 -0.300419 -23.38812 3.614117 -5.729739 -31.50276 13.54232 97.24091 11.94001 -18.41734 -0 0 22.09622 -17.60578 8.762927 8.683507 1.848521 -27.80015 -9.873101 -90.51928 4.394384 31.17439 0 0 -15.9407 16.36361 8.857221 -6.162826
-1380.356 108.1187 150.7592 1.515009 10.55001 177.0133 9.114705 6.682186 6.120161 -0 10.75569 -0 -13.19277 -5.779297 -4.370241 3.078729 -14.18123 -0.003811749 -0 35.53607 -0 10.71509 -0.2423737 17.67574 1.848684 -3.818204 9.406328 1.657675 21.24257 -8.495692 1.039168 17.51514 -0.1118616 -1.471217 -23.43101 3.163568 -5.808918 -34.17886 13.74015 96.54631 10.1757 -16.0229 -0 0 26.64099 -16.61477 9.603769 10.00802 1.087164 -26.86895 -9.649813 -91.05755 3.427923 35.4369 0 0 -14.38671 15.38249 7.986569 -4.571639
